<svg width="20" height="20" viewBox="0 0 20 20" fill="none" xmlns="http://www.w3.org/2000/svg">
<path d="M10.8904 9.7902L19.0903 1.5902C19.4103 1.2702 19.4103 0.760195 19.0903 0.440195C18.7703 0.120195 18.2603 0.120195 17.9403 0.440195L9.74037 8.6402L1.54042 0.440195C1.22042 0.120195 0.710391 0.120195 0.390391 0.440195C0.0703906 0.760195 0.0703906 1.2702 0.390391 1.5902L8.59034 9.7902L0.390391 17.9902C0.0703906 18.3102 0.0703906 18.8202 0.390391 19.1402C0.550391 19.3002 0.760347 19.3802 0.970347 19.3802C1.18035 19.3802 1.39042 19.3002 1.55042 19.1402L9.75038 10.9402L17.9503 19.1402C18.1103 19.3002 18.3204 19.3802 18.5304 19.3802C18.7404 19.3802 18.9504 19.3002 19.1104 19.1402C19.4304 18.8202 19.4304 18.3102 19.1104 17.9902L10.8904 9.7902Z" fill="#02A683"/>
</svg>
