<?xml version="1.0" encoding="utf-8"?>
<!-- Generator: Adobe Illustrator 25.2.1, SVG Export Plug-In . SVG Version: 6.00 Build 0)  -->
<svg version="1.1" id="Layer_1" xmlns="http://www.w3.org/2000/svg" xmlns:xlink="http://www.w3.org/1999/xlink" x="0px" y="0px"
	 viewBox="0 0 146.37 118.84" style="enable-background:new 0 0 146.37 118.84;" xml:space="preserve">
<style type="text/css">
	.st0{fill:#02A481;}
</style>
<g>
	<path class="st0" d="M145.7,81.46c-1.78-6.18-6.43-10.18-13.84-11.88c-2.38-21.58-13.25-38.65-31.92-49.89
		c-1.28-6.12-6.72-10.73-13.21-10.73H82c-0.02-0.28-0.05-0.56-0.07-0.85C81.58,3.57,77.74,0,73.19,0c-4.83,0-8.76,3.91-8.76,8.74
		c0,0.07,0,0.14,0,0.21h-4.76c-6.32,0-11.65,4.37-13.1,10.25C27.59,30.56,16.58,47.83,14.2,69.66C6.97,71.39,2.42,75.36,0.67,81.46
		c-1.74,6.06-0.05,12.83,4.51,18.14c6.04,7.05,12.26,12.24,18.46,15.46c4.74,2.47,10.36,3.77,16.26,3.77h66.57v0
		c5.9,0,11.53-1.3,16.26-3.77c6.2-3.23,12.42-8.42,18.46-15.46C145.75,94.29,147.44,87.5,145.7,81.46z M129.99,83.73
		c-0.02,0.37-0.27,0.75-0.62,0.92c-9.58,4.55-19.29,6.69-28.9,6.39c0.09-0.77,0.1-1.55,0.01-2.34l-0.39-3.36c0-0.01,0-0.02,0-0.03
		l0.14-62.81C121.13,35.72,131.41,56.84,129.99,83.73z M86.73,11.21c6.2,0,11.23,5.03,11.23,11.21l-0.12,53.6
		c-5.67-19.87-10.81-39.57-13.65-52.36c-0.9-4.05-1.56-8.23-1.99-12.44H86.73z M73.19,2.24L73.19,2.24c3.39,0,6.25,2.63,6.47,6.06
		c0.39,5.38,1.17,10.71,2.31,15.85c3.11,13.93,8.92,36.01,15.17,57.56c0.32,1.24,0.55,2.49,0.69,3.73l0.41,3.52
		c0.1,0.89,0.04,1.77-0.16,2.62c-0.06,0.12-0.09,0.25-0.1,0.39c-0.35,1.19-0.99,2.28-1.88,3.19c-1.42,1.44-3.39,2.26-5.42,2.26
		H73.05H73H51.32c-2.15,0-3.91-1.76-3.91-3.91c0-3.08,0.39-6.11,1.14-8.99c0.02-0.04,0.02-0.07,0.04-0.11
		c8.38-23.23,14-43.81,17.15-62.92c0.57-3.52,0.89-7.24,0.95-11.31c0-0.04,0.01-0.08,0.01-0.13c0-0.04-0.01-0.07-0.01-0.11
		c0.01-0.41,0.01-0.81,0.01-1.22C66.69,5.15,69.6,2.24,73.19,2.24z M59.67,11.19h4.72c-0.09,3.56-0.38,6.83-0.9,9.95
		c-2.84,17.21-7.73,35.67-14.87,56.31L48.44,22.4C48.44,16.22,53.47,11.19,59.67,11.19z M46.18,22.06c0,0.12-0.01,0.24-0.01,0.36
		l0.2,61.4c-0.71,2.74-1.12,5.55-1.21,8.38c-10.13-1.25-19.58-3.75-28.09-7.47c-0.59-0.25-0.98-0.82-1.01-1.46
		C14.78,56.44,25.18,35.32,46.18,22.06z M139.5,98.14c-5.86,6.82-11.85,11.85-17.8,14.94c-4.44,2.31-9.7,3.52-15.24,3.52H39.9
		c-5.54,0-10.8-1.24-15.24-3.52c-5.95-3.09-11.94-8.12-17.8-14.94C2.82,93.42,1.29,87.41,2.82,82.1c1.47-5.13,5.12-8.42,11.16-10.05
		c-0.29,3.66-0.34,7.45-0.15,11.35c0.09,1.49,1.01,2.81,2.36,3.41c8.82,3.85,18.58,6.43,29.05,7.69c0.48,2.93,3.02,5.17,6.09,5.17
		H73c0.02,0,0.02,0,0.05,0h17.61h0c2.61,0,5.17-1.08,7.05-2.95c0.99-1,1.73-2.18,2.21-3.45c0.79,0.03,1.57,0.05,2.36,0.05
		c9.36,0,18.76-2.22,28.05-6.63c1.1-0.5,1.83-1.62,1.9-2.84c0.22-4.09,0.17-8.04-0.14-11.87c6.22,1.6,9.97,4.91,11.46,10.13
		C145.09,87.41,143.58,93.4,139.5,98.14z"/>
	<path class="st0" d="M60.63,76.95c0,6.75,5.49,12.22,12.22,12.22h0c6.73,0,12.19-5.47,12.22-12.22c0-6.75-5.47-12.22-12.22-12.22
		C66.1,64.74,60.63,70.23,60.63,76.95z M72.84,67c5.49,0,9.95,4.48,9.95,9.95c0,5.49-4.46,9.95-9.95,9.95
		c-5.49,0-9.95-4.46-9.95-9.95C62.89,71.46,67.35,67,72.84,67z"/>
</g>
</svg>
